<mxfile host="65bd71144e">
    <diagram id="XBKzXyx9NJHjCMAni3Ud" name="Page-1">
        <mxGraphModel dx="1570" dy="563" grid="1" gridSize="10" guides="1" tooltips="1" connect="1" arrows="1" fold="1" page="1" pageScale="1" pageWidth="850" pageHeight="1100" math="0" shadow="0">
            <root>
                <mxCell id="0"/>
                <mxCell id="1" parent="0"/>
                <mxCell id="2" value="LiveActivityDisplay" style="swimlane;fontStyle=1;align=center;verticalAlign=top;childLayout=stackLayout;horizontal=1;startSize=26;horizontalStack=0;resizeParent=1;resizeParentMax=0;resizeLast=0;collapsible=1;marginBottom=0;whiteSpace=wrap;html=1;" vertex="1" parent="1">
                    <mxGeometry x="260" y="450" width="220" height="52" as="geometry"/>
                </mxCell>
                <mxCell id="3" value="- update(FitnessData fitnessData): void" style="text;strokeColor=none;fillColor=none;align=left;verticalAlign=top;spacingLeft=4;spacingRight=4;overflow=hidden;rotatable=0;points=[[0,0.5],[1,0.5]];portConstraint=eastwest;whiteSpace=wrap;html=1;" vertex="1" parent="2">
                    <mxGeometry y="26" width="220" height="26" as="geometry"/>
                </mxCell>
                <mxCell id="4" value="ProgressLogger" style="swimlane;fontStyle=1;align=center;verticalAlign=top;childLayout=stackLayout;horizontal=1;startSize=26;horizontalStack=0;resizeParent=1;resizeParentMax=0;resizeLast=0;collapsible=1;marginBottom=0;whiteSpace=wrap;html=1;" vertex="1" parent="1">
                    <mxGeometry x="500" y="450" width="220" height="52" as="geometry"/>
                </mxCell>
                <mxCell id="5" value="- update(FitnessData fitnessData): void" style="text;strokeColor=none;fillColor=none;align=left;verticalAlign=top;spacingLeft=4;spacingRight=4;overflow=hidden;rotatable=0;points=[[0,0.5],[1,0.5]];portConstraint=eastwest;whiteSpace=wrap;html=1;" vertex="1" parent="4">
                    <mxGeometry y="26" width="220" height="26" as="geometry"/>
                </mxCell>
                <mxCell id="6" value="GoalNotifier" style="swimlane;fontStyle=1;align=center;verticalAlign=top;childLayout=stackLayout;horizontal=1;startSize=26;horizontalStack=0;resizeParent=1;resizeParentMax=0;resizeLast=0;collapsible=1;marginBottom=0;whiteSpace=wrap;html=1;" vertex="1" parent="1">
                    <mxGeometry x="740" y="450" width="240" height="106" as="geometry"/>
                </mxCell>
                <mxCell id="7" value="- goalReached: boolean" style="text;strokeColor=none;fillColor=none;align=left;verticalAlign=top;spacingLeft=4;spacingRight=4;overflow=hidden;rotatable=0;points=[[0,0.5],[1,0.5]];portConstraint=eastwest;whiteSpace=wrap;html=1;" vertex="1" parent="6">
                    <mxGeometry y="26" width="240" height="26" as="geometry"/>
                </mxCell>
                <mxCell id="8" value="- update(FitnessData fitnessData): void" style="text;strokeColor=none;fillColor=none;align=left;verticalAlign=top;spacingLeft=4;spacingRight=4;overflow=hidden;rotatable=0;points=[[0,0.5],[1,0.5]];portConstraint=eastwest;whiteSpace=wrap;html=1;" vertex="1" parent="6">
                    <mxGeometry y="52" width="240" height="28" as="geometry"/>
                </mxCell>
                <mxCell id="9" value="- reset(): void" style="text;strokeColor=none;fillColor=none;align=left;verticalAlign=top;spacingLeft=4;spacingRight=4;overflow=hidden;rotatable=0;points=[[0,0.5],[1,0.5]];portConstraint=eastwest;whiteSpace=wrap;html=1;" vertex="1" parent="6">
                    <mxGeometry y="80" width="240" height="26" as="geometry"/>
                </mxCell>
                <mxCell id="10" value="FitnessData" style="swimlane;fontStyle=1;align=center;verticalAlign=top;childLayout=stackLayout;horizontal=1;startSize=26;horizontalStack=0;resizeParent=1;resizeParentMax=0;resizeLast=0;collapsible=1;marginBottom=0;whiteSpace=wrap;html=1;" vertex="1" parent="1">
                    <mxGeometry x="-300" y="450" width="380" height="312" as="geometry"/>
                </mxCell>
                <mxCell id="11" value="- steps: int" style="text;strokeColor=none;fillColor=none;align=left;verticalAlign=top;spacingLeft=4;spacingRight=4;overflow=hidden;rotatable=0;points=[[0,0.5],[1,0.5]];portConstraint=eastwest;whiteSpace=wrap;html=1;" vertex="1" parent="10">
                    <mxGeometry y="26" width="380" height="26" as="geometry"/>
                </mxCell>
                <mxCell id="12" value="- activeMinutes: int" style="text;strokeColor=none;fillColor=none;align=left;verticalAlign=top;spacingLeft=4;spacingRight=4;overflow=hidden;rotatable=0;points=[[0,0.5],[1,0.5]];portConstraint=eastwest;whiteSpace=wrap;html=1;" vertex="1" parent="10">
                    <mxGeometry y="52" width="380" height="26" as="geometry"/>
                </mxCell>
                <mxCell id="13" value="- calories: int" style="text;strokeColor=none;fillColor=none;align=left;verticalAlign=top;spacingLeft=4;spacingRight=4;overflow=hidden;rotatable=0;points=[[0,0.5],[1,0.5]];portConstraint=eastwest;whiteSpace=wrap;html=1;" vertex="1" parent="10">
                    <mxGeometry y="78" width="380" height="26" as="geometry"/>
                </mxCell>
                <mxCell id="14" value="- registerObserver(FitnessDataObserver fitnessDataObserver): void" style="text;strokeColor=none;fillColor=none;align=left;verticalAlign=top;spacingLeft=4;spacingRight=4;overflow=hidden;rotatable=0;points=[[0,0.5],[1,0.5]];portConstraint=eastwest;whiteSpace=wrap;html=1;" vertex="1" parent="10">
                    <mxGeometry y="104" width="380" height="26" as="geometry"/>
                </mxCell>
                <mxCell id="15" value="- removeObserver(FitnessDataObserver fitnessDataObserver): void" style="text;strokeColor=none;fillColor=none;align=left;verticalAlign=top;spacingLeft=4;spacingRight=4;overflow=hidden;rotatable=0;points=[[0,0.5],[1,0.5]];portConstraint=eastwest;whiteSpace=wrap;html=1;" vertex="1" parent="10">
                    <mxGeometry y="130" width="380" height="26" as="geometry"/>
                </mxCell>
                <mxCell id="16" value="- notifyObservers(): void" style="text;strokeColor=none;fillColor=none;align=left;verticalAlign=top;spacingLeft=4;spacingRight=4;overflow=hidden;rotatable=0;points=[[0,0.5],[1,0.5]];portConstraint=eastwest;whiteSpace=wrap;html=1;" vertex="1" parent="10">
                    <mxGeometry y="156" width="380" height="26" as="geometry"/>
                </mxCell>
                <mxCell id="17" value="- newDataPushed(int steps, int minutes, int calories): void" style="text;strokeColor=none;fillColor=none;align=left;verticalAlign=top;spacingLeft=4;spacingRight=4;overflow=hidden;rotatable=0;points=[[0,0.5],[1,0.5]];portConstraint=eastwest;whiteSpace=wrap;html=1;" vertex="1" parent="10">
                    <mxGeometry y="182" width="380" height="26" as="geometry"/>
                </mxCell>
                <mxCell id="18" value="- dailyReset(): void" style="text;strokeColor=none;fillColor=none;align=left;verticalAlign=top;spacingLeft=4;spacingRight=4;overflow=hidden;rotatable=0;points=[[0,0.5],[1,0.5]];portConstraint=eastwest;whiteSpace=wrap;html=1;" vertex="1" parent="10">
                    <mxGeometry y="208" width="380" height="26" as="geometry"/>
                </mxCell>
                <mxCell id="19" value="- getSteps(): int" style="text;strokeColor=none;fillColor=none;align=left;verticalAlign=top;spacingLeft=4;spacingRight=4;overflow=hidden;rotatable=0;points=[[0,0.5],[1,0.5]];portConstraint=eastwest;whiteSpace=wrap;html=1;" vertex="1" parent="10">
                    <mxGeometry y="234" width="380" height="26" as="geometry"/>
                </mxCell>
                <mxCell id="20" value="- getActiveMinutes(): int" style="text;strokeColor=none;fillColor=none;align=left;verticalAlign=top;spacingLeft=4;spacingRight=4;overflow=hidden;rotatable=0;points=[[0,0.5],[1,0.5]];portConstraint=eastwest;whiteSpace=wrap;html=1;" vertex="1" parent="10">
                    <mxGeometry y="260" width="380" height="26" as="geometry"/>
                </mxCell>
                <mxCell id="21" value="- getCalories(): int" style="text;strokeColor=none;fillColor=none;align=left;verticalAlign=top;spacingLeft=4;spacingRight=4;overflow=hidden;rotatable=0;points=[[0,0.5],[1,0.5]];portConstraint=eastwest;whiteSpace=wrap;html=1;" vertex="1" parent="10">
                    <mxGeometry y="286" width="380" height="26" as="geometry"/>
                </mxCell>
                <mxCell id="22" value="Application" style="swimlane;fontStyle=1;align=center;verticalAlign=top;childLayout=stackLayout;horizontal=1;startSize=26;horizontalStack=0;resizeParent=1;resizeParentMax=0;resizeLast=0;collapsible=1;marginBottom=0;whiteSpace=wrap;html=1;" vertex="1" parent="1">
                    <mxGeometry x="300" y="676" width="160" height="86" as="geometry"/>
                </mxCell>
                <mxCell id="23" value="&amp;lt;&amp;lt;interface&amp;gt;&amp;gt;&lt;div&gt;FitnessDataObserver&lt;/div&gt;" style="swimlane;fontStyle=1;align=center;verticalAlign=top;childLayout=stackLayout;horizontal=1;startSize=26;horizontalStack=0;resizeParent=1;resizeParentMax=0;resizeLast=0;collapsible=1;marginBottom=0;whiteSpace=wrap;html=1;" vertex="1" parent="1">
                    <mxGeometry x="480" y="240" width="330" height="52" as="geometry"/>
                </mxCell>
                <mxCell id="24" value="- update(FitnessData fitnessData): void" style="text;strokeColor=none;fillColor=none;align=left;verticalAlign=top;spacingLeft=4;spacingRight=4;overflow=hidden;rotatable=0;points=[[0,0.5],[1,0.5]];portConstraint=eastwest;whiteSpace=wrap;html=1;" vertex="1" parent="23">
                    <mxGeometry y="26" width="330" height="26" as="geometry"/>
                </mxCell>
                <mxCell id="26" value="" style="html=1;labelBackgroundColor=#ffffff;jettySize=auto;orthogonalLoop=1;fontSize=14;rounded=0;jumpStyle=gap;edgeStyle=orthogonalEdgeStyle;startArrow=none;endArrow=block;endFill=0;dashed=1;strokeWidth=1;" edge="1" parent="1" source="4">
                    <mxGeometry width="48" height="48" relative="1" as="geometry">
                        <mxPoint x="590" y="340" as="sourcePoint"/>
                        <mxPoint x="638" y="292" as="targetPoint"/>
                    </mxGeometry>
                </mxCell>
                <mxCell id="29" value="" style="html=1;labelBackgroundColor=#ffffff;jettySize=auto;orthogonalLoop=1;fontSize=14;rounded=0;jumpStyle=gap;edgeStyle=orthogonalEdgeStyle;startArrow=none;endArrow=block;endFill=0;dashed=1;strokeWidth=1;" edge="1" parent="1">
                    <mxGeometry width="48" height="48" relative="1" as="geometry">
                        <mxPoint x="360" y="450" as="sourcePoint"/>
                        <mxPoint x="610" y="370" as="targetPoint"/>
                        <Array as="points">
                            <mxPoint x="359" y="450"/>
                            <mxPoint x="359" y="370"/>
                        </Array>
                    </mxGeometry>
                </mxCell>
                <mxCell id="30" value="" style="html=1;labelBackgroundColor=#ffffff;jettySize=auto;orthogonalLoop=1;fontSize=14;rounded=0;jumpStyle=gap;edgeStyle=orthogonalEdgeStyle;startArrow=none;endArrow=block;endFill=0;dashed=1;strokeWidth=1;" edge="1" parent="1">
                    <mxGeometry width="48" height="48" relative="1" as="geometry">
                        <mxPoint x="851" y="450" as="sourcePoint"/>
                        <mxPoint x="640" y="370" as="targetPoint"/>
                        <Array as="points">
                            <mxPoint x="850" y="450"/>
                            <mxPoint x="850" y="370"/>
                        </Array>
                    </mxGeometry>
                </mxCell>
                <mxCell id="31" value="&amp;lt;&amp;lt;interface&amp;gt;&amp;gt;&lt;div&gt;FitnessDataObservable&lt;/div&gt;&lt;div&gt;&lt;br&gt;&lt;/div&gt;" style="swimlane;fontStyle=1;align=center;verticalAlign=top;childLayout=stackLayout;horizontal=1;startSize=26;horizontalStack=0;resizeParent=1;resizeParentMax=0;resizeLast=0;collapsible=1;marginBottom=0;whiteSpace=wrap;html=1;" vertex="1" parent="1">
                    <mxGeometry x="-300" y="200" width="380" height="104" as="geometry"/>
                </mxCell>
                <mxCell id="34" value="- registerObserver(FitnessDataObserver fitnessDataObserver): void" style="text;strokeColor=none;fillColor=none;align=left;verticalAlign=top;spacingLeft=4;spacingRight=4;overflow=hidden;rotatable=0;points=[[0,0.5],[1,0.5]];portConstraint=eastwest;whiteSpace=wrap;html=1;" vertex="1" parent="31">
                    <mxGeometry y="26" width="380" height="26" as="geometry"/>
                </mxCell>
                <mxCell id="35" value="- removeObserver(FitnessDataObserver fitnessDataObserver): void" style="text;strokeColor=none;fillColor=none;align=left;verticalAlign=top;spacingLeft=4;spacingRight=4;overflow=hidden;rotatable=0;points=[[0,0.5],[1,0.5]];portConstraint=eastwest;whiteSpace=wrap;html=1;" vertex="1" parent="31">
                    <mxGeometry y="52" width="380" height="26" as="geometry"/>
                </mxCell>
                <mxCell id="36" value="- notifyObservers(): void" style="text;strokeColor=none;fillColor=none;align=left;verticalAlign=top;spacingLeft=4;spacingRight=4;overflow=hidden;rotatable=0;points=[[0,0.5],[1,0.5]];portConstraint=eastwest;whiteSpace=wrap;html=1;" vertex="1" parent="31">
                    <mxGeometry y="78" width="380" height="26" as="geometry"/>
                </mxCell>
                <mxCell id="37" value="" style="html=1;labelBackgroundColor=#ffffff;jettySize=auto;orthogonalLoop=1;fontSize=14;rounded=0;jumpStyle=gap;edgeStyle=orthogonalEdgeStyle;startArrow=none;endArrow=block;endFill=0;dashed=1;strokeWidth=1;exitX=0.467;exitY=-0.009;exitDx=0;exitDy=0;exitPerimeter=0;" edge="1" parent="1" source="10">
                    <mxGeometry width="48" height="48" relative="1" as="geometry">
                        <mxPoint x="-130" y="450" as="sourcePoint"/>
                        <mxPoint x="-122" y="304" as="targetPoint"/>
                        <Array as="points">
                            <mxPoint x="-122" y="380"/>
                            <mxPoint x="-122" y="380"/>
                        </Array>
                    </mxGeometry>
                </mxCell>
                <mxCell id="38" value="" style="html=1;startArrow=diamondThin;startFill=1;edgeStyle=elbowEdgeStyle;elbow=vertical;startSize=10;endArrow=none;endFill=0;entryX=0;entryY=0.385;entryDx=0;entryDy=0;entryPerimeter=0;" edge="1" parent="1" target="23">
                    <mxGeometry width="160" relative="1" as="geometry">
                        <mxPoint x="80" y="260" as="sourcePoint"/>
                        <mxPoint x="240" y="260" as="targetPoint"/>
                    </mxGeometry>
                </mxCell>
                <mxCell id="40" value="" style="endArrow=open;endFill=1;endSize=12;html=1;exitX=0;exitY=0.5;exitDx=0;exitDy=0;" edge="1" parent="1" source="22">
                    <mxGeometry width="160" relative="1" as="geometry">
                        <mxPoint x="120" y="730" as="sourcePoint"/>
                        <mxPoint x="80" y="719" as="targetPoint"/>
                    </mxGeometry>
                </mxCell>
                <mxCell id="42" value="" style="html=1;labelBackgroundColor=#ffffff;jettySize=auto;orthogonalLoop=1;fontSize=14;rounded=0;jumpStyle=gap;edgeStyle=orthogonalEdgeStyle;startArrow=none;endArrow=open;dashed=1;strokeWidth=1;exitX=0.414;exitY=0.009;exitDx=0;exitDy=0;exitPerimeter=0;entryX=0.479;entryY=0.985;entryDx=0;entryDy=0;entryPerimeter=0;" edge="1" parent="1" source="22" target="3">
                    <mxGeometry width="48" height="48" relative="1" as="geometry">
                        <mxPoint x="345.75" y="608" as="sourcePoint"/>
                        <mxPoint x="393.75" y="560" as="targetPoint"/>
                    </mxGeometry>
                </mxCell>
                <mxCell id="43" value="" style="html=1;labelBackgroundColor=#ffffff;jettySize=auto;orthogonalLoop=1;fontSize=14;rounded=0;jumpStyle=gap;edgeStyle=orthogonalEdgeStyle;startArrow=none;endArrow=open;dashed=1;strokeWidth=1;entryX=0.479;entryY=0.985;entryDx=0;entryDy=0;entryPerimeter=0;" edge="1" parent="1">
                    <mxGeometry width="48" height="48" relative="1" as="geometry">
                        <mxPoint x="370" y="600" as="sourcePoint"/>
                        <mxPoint x="610" y="502" as="targetPoint"/>
                    </mxGeometry>
                </mxCell>
                <mxCell id="44" value="" style="html=1;labelBackgroundColor=#ffffff;jettySize=auto;orthogonalLoop=1;fontSize=14;rounded=0;jumpStyle=gap;edgeStyle=orthogonalEdgeStyle;startArrow=none;endArrow=open;dashed=1;strokeWidth=1;entryX=0.479;entryY=0.985;entryDx=0;entryDy=0;entryPerimeter=0;" edge="1" parent="1">
                    <mxGeometry width="48" height="48" relative="1" as="geometry">
                        <mxPoint x="610" y="600" as="sourcePoint"/>
                        <mxPoint x="849" y="556" as="targetPoint"/>
                    </mxGeometry>
                </mxCell>
            </root>
        </mxGraphModel>
    </diagram>
</mxfile>